<svg xmlns="http://www.w3.org/2000/svg" xmlns:xlink="http://www.w3.org/1999/xlink" id="Capa_1" x="0px" y="0px" viewBox="0 0 512 512" style="enable-background:new 0 0 512 512;" xml:space="preserve">
<style type="text/css">
	.st0{fill:#FFFFFF;}
</style>
<g>
	<path class="st0" d="M441.4,324.8L415.6,299c-2.2-2.2-5.8-2.2-8,0c-2.2,2.2-2.2,5.8,0,8l3.6,3.6l-86.6,86.7l-30.9-30.9l86.7-86.6   l8.8,8.8c2.2,2.2,5.8,2.2,8,0c2.2-2.2,2.2-5.8,0-8l-12.8-12.8c-10.1-10.4-16.8-22.2-26.2-33.3c10.7-14.4-0.6-35.5-18.5-34.6   c0.6-12.5-10.1-23.3-22.7-22.7c0.6-12.5-10.2-23.3-22.7-22.7c1-20.7-24.9-30-38.3-15l-1.3-1.3c-8.5-8.5-22.2-8.5-30.7,0   c-4.5,4.5-6.6,10.5-6.3,16.4c-12.6-0.6-23.3,10.1-22.7,22.7c-5-0.2-10.1,1.2-14.2,4.4c-7.7-2.7-16-1.7-23.5,2.8   c-9.1,5.6-14.9,15.4-15,25.7l-6.4,49.4l-65.3,65.3c-2.2,2.2-2.2,5.8,0,8l94.6,94.6c1.1,1.1,2.5,1.7,4,1.7c1.4,0,2.9-0.6,4-1.7   l57.1-57.1c2.2-2.2,2.2-5.8,0-8l-9.6-9.6c10.8-10.8,21.6-16.2,35.3-22.4c13.7,6.2,24.7,11.8,35.3,22.4l-9.6,9.6   c-1.1,1.1-1.7,2.5-1.7,4c0,1.5,0.6,2.9,1.7,4l57.1,57.1c1.1,1.1,2.5,1.7,4,1.7c1.4,0,2.9-0.6,4-1.7l94.6-94.6   c1.1-1.1,1.7-2.5,1.7-4C443.1,327.3,442.5,325.8,441.4,324.8L441.4,324.8z M340.8,211c7.3,0,12.5,7.9,9.5,14.6   c-4.5-4.6-9.1-9.2-13.7-13.7C338,211.6,339.4,211.3,340.8,211L340.8,211z M318.1,188.3c7.4,0,12.5,7.9,9.5,14.6   c-4.8-4.7-10.3-9-16.4-12C313.1,189.2,315.4,188.3,318.1,188.3L318.1,188.3z M165.2,230.1l-1.3-1.3c-4.1-4.1-4.1-10.7,0-14.7   c2-2,4.7-3,7.4-3s5.3,1,7.4,3l1.3,1.3l-7.4,7.4L165.2,230.1z M232,146c2-2,4.7-3,7.4-3s5.3,1,7.4,3l1.3,1.3L233.3,162l-1.3-1.3   C227.9,156.6,227.9,150,232,146L232,146z M206.2,176c0-2.8,1.1-5.4,3.1-7.4c2-2,4.7-3,7.4-3c2.7,0,5.3,1,7.4,3l1.3,1.3l-7.4,7.4   l-7.4,7.4l-1.3-1.3C207.3,181.4,206.2,178.8,206.2,176L206.2,176z M193.9,188.3c2.7,0,5.3,1,7.4,3l1.3,1.3l-14.7,14.7l-1.3-1.3   c-4.1-4.1-4.1-10.7,0-14.7C188.6,189.3,191.3,188.3,193.9,188.3z M163.2,194c2.2-1.3,5.9-3,10.3-2.6c-1,2.7-1.4,5.6-1.3,8.4   c-7.2-0.3-14.4,3.1-18.7,9C154.2,203,157.8,197.3,163.2,194z M169.2,415.4l-86.6-86.6l10.3-10.3l86.6,86.6L169.2,415.4z    M281.1,329.2c-4-2.5-8.2-4.6-12.6-6.2c5.6-4,10.4-9,15.2-13.9c2.2-2.2,2.2-5.8,0-8c-2.2-2.2-5.8-2.2-8,0   c-6.8,6.8-13.5,13.5-22.3,17.8c-15.4,7.7-28.4,13.4-40.8,25.8l-47.9-47.9c-2.2-2.2-5.8-2.2-8,0c-2.2,2.2-2.2,5.8,0,8l61.5,61.5   l-30.9,30.9l-86.7-86.6l30.9-30.9l5.6,5.6c2.2,2.2,5.8,2.2,8,0c2.2-2.2,2.2-5.8,0-8l-5.6-5.6l5.6-5.6c0.9-0.9,1.4-2,1.6-3.3   l4.3-33.3c2.1,5.1,6.3,8.7,10.1,12.5c2.2,2.2,5.8,2.2,8,0l96.1-96.1c9.4-9.4,24.2,5.3,14.7,14.7c-1.1,1.1-1.7,2.5-1.7,4   c0,1.4,0.6,2.9,1.7,4c2.2,2.2,5.8,2.2,8,0c9.5-9.5,24.2,5.2,14.7,14.7c-1.1,1.1-1.7,2.5-1.7,4c0-1.3-44.8-0.7-48.4-0.7   c-24.5,0-28.6,36.3-4.4,41.1l28,8.3c4.4,1.3,8.4,3.7,11.6,6.9l23.1,23.1l-16.3,16.3c-2.2,2.2-2.2,5.8,0,8c2.2,2.2,5.8,2.2,8,0   l20.3-20.3c1.1-1.1,1.7-2.5,1.7-4c0-1.5-0.6-2.9-1.7-4l-27-27c-4.6-4.6-10.2-7.9-16.4-9.7l-28.2-8.4c-10.4-3.1-11.4-18.9,1.4-18.9   h40.1c10.9,0,20.2,6.2,27.6,13.7c0,0,24.4,24.5,26.1,26.4c9.6,10.7,15.8,23.5,25.9,33.6l-73.1,73.1   C293.6,339,288,333.5,281.1,329.2L281.1,329.2z M342.8,415.4l-10.3-10.3l86.6-86.6l10.3,10.3L342.8,415.4z"></path>
	<path class="st0" d="M256,105.8c3.1,0,5.6-2.5,5.6-5.6V88.6c0-3.1-2.5-5.6-5.6-5.6c-3.1,0-5.6,2.5-5.6,5.6v11.5   C250.4,103.3,252.9,105.8,256,105.8L256,105.8z"></path>
	<path class="st0" d="M224.2,107.9c0.9,2.1,3,3.4,5.2,3.4c0.8,0,1.5-0.2,2.3-0.5c2.9-1.2,4.2-4.6,2.9-7.4l-4.6-10.6   c-1.2-2.9-4.6-4.2-7.4-2.9c-2.9,1.2-4.2,4.6-2.9,7.4L224.2,107.9z"></path>
	<path class="st0" d="M203.3,125.4c1.1,1,2.5,1.5,3.8,1.5c1.5,0,3-0.6,4.1-1.8c2.1-2.3,2-5.9-0.3-8l-8.5-7.8c-2.3-2.1-5.9-2-8,0.3   c-2.1,2.3-2,5.9,0.3,8L203.3,125.4z"></path>
	<path class="st0" d="M280.4,110.8c0.7,0.3,1.5,0.5,2.3,0.5c2.2,0,4.2-1.3,5.2-3.4l4.6-10.6c1.2-2.9-0.1-6.2-2.9-7.4   c-2.9-1.2-6.2,0.1-7.4,2.9l-4.6,10.6C276.2,106.2,277.5,109.5,280.4,110.8z"></path>
	<path class="st0" d="M304.8,126.9c1.4,0,2.7-0.5,3.8-1.5l8.5-7.8c2.3-2.1,2.4-5.7,0.3-8c-2.1-2.3-5.7-2.4-8-0.3l-8.5,7.8   c-2.3,2.1-2.4,5.7-0.3,8C301.8,126.3,303.3,126.9,304.8,126.9z"></path>
	<ellipse class="st0" cx="187.4" cy="366.8" rx="6.4" ry="6.4"></ellipse>
</g>
</svg>