<svg xmlns="http://www.w3.org/2000/svg" viewBox="0 0 515.56 432.2"><defs><style>.cls-1{fill:#7dcb97;}.cls-2,.cls-4{fill:#3e2563;}.cls-2{stroke:#3e2563;stroke-miterlimit:10;stroke-width:3px;}.cls-3{fill:none;}</style></defs><g id="Calque_2" data-name="Calque 2"><g id="Calque_2-2" data-name="Calque 2"><path class="cls-1" d="M36,76C16,79.12,0,98.13,0,118.47V432.2l515.56-81.66V0Z"></path></g><g id="Calque_3" data-name="Calque 3"><path class="cls-2" d="M195,81.32V70.57c0-2.29.65-2.92,3-2.92q7.91,0,15.8,0c2.26,0,2.89.63,2.9,2.85q0,14.35,0,28.72a2.08,2.08,0,0,0,.78,1.77c7.09,6.15,14.14,12.33,21.22,18.48.88.76,1.52,1.56,1.06,2.78s-1.45,1.45-2.61,1.45c-4.93,0-9.85,0-14.77,0h-1.55v1.52q0,30.17,0,60.32a12.82,12.82,0,0,1-10.14,12.85,14.37,14.37,0,0,1-3.2.33q-36.22,0-72.44,0c-7.8,0-13.38-5.59-13.38-13.37q0-30,0-60.1v-1.53h-1.3c-5,0-10,0-15,0-1.17,0-2.16-.23-2.64-1.43s.15-2,1-2.79q32.77-28.56,65.53-57.15c1.55-1.35,2.37-1.36,3.89,0l21,18.25C194.36,80.78,194.6,81,195,81.32Zm-84.61,38.06h12.45c2.53,0,3.12.59,3.12,3.13q0,31.49,0,63a8.53,8.53,0,0,0,8.86,8.87q36.4,0,72.79,0a10.1,10.1,0,0,0,2.73-.37c3.85-1.09,6.16-4.37,6.16-8.7V122.87c0-.38,0-.77,0-1.15a2.15,2.15,0,0,1,2.4-2.33h13.1l-60.81-53Zm89-47.43c0,.43-.06.8-.06,1.18,0,3.65,0,7.3,0,11a2.07,2.07,0,0,0,.8,1.76c3.72,3.22,7.42,6.47,11.13,9.7.3.27.63.5,1,.83V72Z"></path><path class="cls-2" d="M191.3,147.79c-1.58-.27-3.18-.48-4.75-.83a1.38,1.38,0,0,0-1.52.38q-11,11-21.91,22a1.84,1.84,0,0,0-.43,1.37c1.47,9.43-5.52,17.55-15,17.18a18,18,0,0,1-5.12-1.17c-1.76-.6-2-2.35-.71-3.69,2.37-2.41,4.77-4.79,7.17-7.18a2.42,2.42,0,0,0,.85-2.58,2.28,2.28,0,0,0-3.89-.85c-2.42,2.37-4.77,4.8-7.21,7.15a3.5,3.5,0,0,1-1.86,1c-1.17.14-1.75-.71-2.17-1.71a14.46,14.46,0,0,1,10.53-19.65,38.6,38.6,0,0,1,5.6-.13,2.28,2.28,0,0,0,1.4-.45q11-11,22-22a1.55,1.55,0,0,0,.33-1.26c-2.81-10.57,3.42-20.44,14.12-22.2a16.14,16.14,0,0,1,9.36,1.22c1.77.79,2.1,2.4.74,3.78q-4.55,4.59-9.13,9.14a3.17,3.17,0,0,0-.79,3.6,3.11,3.11,0,0,0,2.8,2.07,3.5,3.5,0,0,0,2.87-1.21c2.89-2.92,5.81-5.83,8.72-8.73,1.65-1.65,3.27-1.3,4.18.89C212.21,135.14,203.72,147.62,191.3,147.79Zm2.18-30.16-.22-.33c-.55-.06-1.11-.16-1.67-.18a13.05,13.05,0,0,0-12.51,17.78,3.07,3.07,0,0,1-.83,3.78q-12,11.85-23.82,23.81a3.1,3.1,0,0,1-3.48,1A9.64,9.64,0,0,0,142.2,165a10.06,10.06,0,0,0-4.17,9.16c.44-.41.72-.65,1-.91,1.42-1.41,2.79-2.87,4.26-4.23A6.56,6.56,0,0,1,154,172a6.36,6.36,0,0,1-1.72,6.58c-1.58,1.6-3.2,3.16-5,5,.7,0,1.07.08,1.43.07a10.17,10.17,0,0,0,9.45-12.92,3.21,3.21,0,0,1,1-3.58Q171,155.3,182.81,143.42a3.32,3.32,0,0,1,4.07-.9,13,13,0,0,0,17.56-13.12c0-.34-.12-.68-.21-1.19l-1.08,1c-2,2-3.93,4-6,5.93a7.51,7.51,0,0,1-8.88,1.05,7.63,7.63,0,0,1-1.43-12.2Z"></path><path class="cls-2" d="M171.2,79.65l-13.27,12.1q-12.56,11.46-25.15,22.9a3.1,3.1,0,0,1-2.09.9,2.84,2.84,0,0,1-1.75-1.39,1.9,1.9,0,0,1,.66-2.37l5.79-5.28,33.82-30.85c1.66-1.52,2.49-1.5,4.13.06L201,102a7.81,7.81,0,0,1,.8.83,2.11,2.11,0,0,1-.22,2.74,2.06,2.06,0,0,1-2.64.3,9.28,9.28,0,0,1-1.21-1.06L172.07,80.44C171.82,80.2,171.56,80,171.2,79.65Z"></path><path class="cls-2" d="M206.43,108a9.32,9.32,0,0,1,1.73.94c1.54,1.39,3,2.83,4.52,4.27a2.16,2.16,0,0,1,.2,3.17,2.14,2.14,0,0,1-3.17-.09q-2.31-2.16-4.58-4.37a1.78,1.78,0,0,1-.45-2.3A10.12,10.12,0,0,1,206.43,108Z"></path><path class="cls-3" d="M238.88,159.21c0,5.14,3.65,9.74,8.28,10.62V148.69C242.47,149.55,238.89,154,238.88,159.21Z"></path><path class="cls-3" d="M296,118.31a115.09,115.09,0,0,0-5.76-22.91,98.87,98.87,0,0,0-4.12,22.91Z"></path><path class="cls-3" d="M259,232.32c6.06-1.34,12.3-2.7,18.83-4.1,1.52-.33,1.88-.75,2.09-2.48.52-4.24-.6-7-4.08-9.69A125.74,125.74,0,0,1,259,232.32Z"></path><path class="cls-3" d="M305.38,146.19a77.94,77.94,0,0,0,18.7-.37,71,71,0,0,0,36.86-16.52H305.75c.08,1.9.13,3.8.13,5.72C305.88,138.78,305.71,142.51,305.38,146.19Z"></path><path class="cls-3" d="M269,210.84c-8.06-6.93-14.15-16-18.14-27.1-.69-1.9-1.23-2.51-3.3-2.63-11-.63-20-9.53-20.5-20.26-.49-11.94,7.06-21.22,18.78-23.09.3,0,.6-.12,1-.21l.24-.05v-2.14c0-2.9,0-5.81,0-8.71,0-6.27,0-12.76.07-19.14.32-18.45,9-35.68,22.49-47.61A115.91,115.91,0,1,0,223,243.23a58,58,0,0,1,11.34-5.1A116.55,116.55,0,0,0,269,210.84Z"></path><path class="cls-3" d="M340.93,118.31c-1.64-23.86-10.65-44-27.51-61.45a99.8,99.8,0,0,0-18.62,26.8,123.7,123.7,0,0,1,10,34.65Z"></path><path class="cls-3" d="M300,55.72a37.43,37.43,0,0,0-17.31,7q3.24,4.51,6.06,9.34A111.66,111.66,0,0,1,300,55.72Z"></path><path class="cls-3" d="M321.06,216.68c24.14-2.91,44.46-22.93,47.26-46.56a179.12,179.12,0,0,0,.79-21c0-3.12,0-6.34.06-9.51,0-.85,0-1.71,0-2.76v-.44c-16.72,14.06-35,20.91-55.72,20.92h0a89,89,0,0,1-9.45-.49,123.94,123.94,0,0,1-21.62,50.94A57,57,0,0,0,321.06,216.68Z"></path><path class="cls-3" d="M355.52,73.38c-8-10-18.43-16.38-28.7-17.65a106.71,106.71,0,0,1,24.91,62.63H369C371,103.21,366,86.44,355.52,73.38Z"></path><path class="cls-3" d="M256.21,244l-1.43.32c-1.56.36-3,.7-4.53.91s-2,.71-2,2.38c.09,6.83.08,13.76.07,20.47,0,2.79,0,5.59,0,8.38,0,.53,0,1.07.08,1.59v.07h7.8Z"></path><path class="cls-3" d="M248.55,325.22h17.17v-6c0-5.26,0-10.44,0-15.63,0-4.42,1.94-6.39,6.24-6.4h83c4.16,0,6.19,2,6.22,6.17s0,8.24,0,12.35v7.46c0,.59,0,1.18.07,1.8,0,.09,0,.18,0,.27h17.1V289.22H248.55Z"></path><path class="cls-3" d="M303.54,252.54c8.17,3.93,16.06,3.18,23.47-2.22,8.71-6.34,10-15.15,9.15-26.39a65.78,65.78,0,0,1-45.59-.05c0,.79,0,1.56,0,2.31,0,2.21-.06,4.29.05,6.36C291.09,241.91,295.44,248.64,303.54,252.54Z"></path><path class="cls-3" d="M359.66,241.51l-13.28-2.94a33.64,33.64,0,0,1-11.62,19.27,33,33,0,0,1-21.47,7.69h-.23c-15.44-.1-25.84-8.66-32.7-26.94l-13.18,2.94V278.2h92.48Z"></path><path class="cls-3" d="M206.38,287.1c-.47,8.74-.44,17.67-.41,26.3,0,3.77,0,7.66,0,11.49a1.87,1.87,0,0,0,.07.4h31.41V248.44a3,3,0,0,0-.47.11C220.7,253.58,207.27,270.51,206.38,287.1Z"></path><path class="cls-3" d="M404.22,256.64a42.1,42.1,0,0,0-14.72-8.17v76.84h31.3a5,5,0,0,0,.11-.87c0-3.28,0-6.55,0-9.83,0-7.7.09-15.66-.11-23.48C420.5,277.32,414.9,265.71,404.22,256.64Z"></path><path class="cls-3" d="M378.18,245.67c-2-.5-4.06-.93-6.22-1.38l-1.3-.27v34.2h7.87v-4.48c0-9.4,0-18.28,0-27.36A1.36,1.36,0,0,0,378.18,245.67Z"></path><rect class="cls-3" x="276.69" y="308" width="73.52" height="17.29"></rect><path class="cls-3" d="M388,158.64c-.19-4.93-3.92-9.31-8.29-9.93v21.12A10.87,10.87,0,0,0,388,158.64Z"></path><path class="cls-4" d="M431.47,289.89a56.09,56.09,0,0,0-40.36-52.13c-5.58-1.59-11.34-2.82-16.92-4-2.38-.51-4.84-1-7.25-1.58-4.64-1.06-9.28-2.09-14-3.14L347,227.71c0-.62,0-1.23,0-1.84,0-2,0-3.84.09-5.71a3,3,0,0,1,1.11-2,67.2,67.2,0,0,0,28.26-35.83c.36-1,.67-1.4,1.82-1.49a21.73,21.73,0,0,0,2.84-43c-.34-.08-.68-.19-1.08-.32l-.19-.06q0-3.74,0-7.45c0-6.21.07-12.63-.08-18.93a81.21,81.21,0,0,0-1.43-15c-7.65-34.95-39.08-56.83-74.74-52a63.54,63.54,0,0,0-27.28,10.57q3.34,3.94,6.37,8.17a37.43,37.43,0,0,1,17.31-7A111.66,111.66,0,0,0,288.79,72.1a125.24,125.24,0,0,1,6,11.56,99.8,99.8,0,0,1,18.62-26.8c16.86,17.47,25.87,37.59,27.51,61.45H304.76c.49,3.62.82,7.29,1,11h55.19a71,71,0,0,1-36.86,16.52,77.94,77.94,0,0,1-18.7.37c-.33,3.61-.79,7.18-1.42,10.69a89,89,0,0,0,9.45.49h0c20.76,0,39-6.86,55.72-20.92v.44c0,1.05,0,1.91,0,2.76-.07,3.17-.06,6.39-.06,9.51a179.12,179.12,0,0,1-.79,21c-2.8,23.63-23.12,43.65-47.26,46.56a57,57,0,0,1-38.72-8.86q-3.07,4.25-6.49,8.23c3.48,2.69,4.6,5.45,4.08,9.69-.21,1.73-.57,2.15-2.09,2.48-6.53,1.4-12.77,2.76-18.83,4.1a124.21,124.21,0,0,1-51.86,24.58,51.59,51.59,0,0,0-11,27.15c-1.08,11.07-1,22.43-.82,33.42.05,4.5.1,9.16.07,13.72,0,2.46,1.57,4.24,4.23,4.78a16.41,16.41,0,0,0,3,.2H425c.29,0,.58,0,.88,0,3.72-.19,5.7-2.22,5.7-5.89s0-7.1.05-10.65C431.66,309.87,431.71,299.8,431.47,289.89ZM379.68,148.71c4.37.62,8.1,5,8.29,9.93a10.87,10.87,0,0,1-8.29,11.19ZM369,118.36H351.73a106.71,106.71,0,0,0-24.91-62.63c10.27,1.27,20.65,7.63,28.7,17.65C366,86.44,371,103.21,369,118.36ZM290.55,226.19c0-.75,0-1.52,0-2.31a65.78,65.78,0,0,0,45.59.05c.88,11.24-.44,20-9.15,26.39-7.41,5.4-15.3,6.15-23.47,2.22s-12.45-10.63-12.94-20C290.49,230.48,290.52,228.4,290.55,226.19Zm-23.37,15.34,13.18-2.94c6.86,18.28,17.26,26.84,32.7,26.94h.23a33,33,0,0,0,21.47-7.69,33.64,33.64,0,0,0,11.62-19.27l13.28,2.94V278.2H267.18Zm-29.74,83.76H206a1.87,1.87,0,0,1-.07-.4c0-3.83,0-7.72,0-11.49,0-8.63-.06-17.56.41-26.3.89-16.59,14.32-33.52,30.59-38.55a3,3,0,0,1,.47-.11Zm11-47.23c0-.52-.08-1.06-.08-1.59,0-2.79,0-5.59,0-8.38,0-6.71,0-13.64-.07-20.47,0-1.67.39-2.16,2-2.38s3-.55,4.53-.91l1.43-.32v34.12h-7.8Zm101.81,47.23H276.69V308h73.53Zm28.12,0h-17.1c0-.09,0-.18,0-.27,0-.62-.07-1.21-.07-1.8v-7.46q0-6.17,0-12.35c0-4.15-2.06-6.16-6.22-6.17H272c-4.3,0-6.22,2-6.24,6.4,0,5.19,0,10.37,0,15.63v6H248.55v-36H378.34Zm.19-51.54v4.48h-7.87V244l1.3.27c2.16.45,4.19.88,6.22,1.38a1.36,1.36,0,0,1,.32.71C378.54,255.46,378.53,264.34,378.53,273.74ZM421,314.61c0,3.28,0,6.55,0,9.83a5,5,0,0,1-.11.87H389.5V248.47a42.1,42.1,0,0,1,14.72,8.17c10.68,9.07,16.28,20.68,16.62,34.49C421,299,421,306.91,421,314.61Z"></path><path class="cls-4" d="M234.29,238.13a58,58,0,0,0-11.34,5.1A115.65,115.65,0,0,0,234.29,238.13Z"></path><path class="cls-4" d="M247.06,107.51c-.11,6.38-.09,12.87-.07,19.14,0,2.9,0,5.81,0,8.71v2.14l-.24.05c-.37.09-.67.16-1,.21-11.72,1.87-19.27,11.15-18.78,23.09.45,10.73,9.45,19.63,20.5,20.26,2.07.12,2.61.73,3.3,2.63,4,11.08,10.08,20.17,18.14,27.1,2.33-2.68,4.53-5.48,6.61-8.37A56.31,56.31,0,0,1,258.75,172a66.83,66.83,0,0,1-1-11.59c-.11-5.39-.08-10.87-.06-16.17,0-2,0-4.09,0-6.13,0-.48,0-1,.07-1.57,11.65,9.83,24.1,16.12,37.67,19q.94-5.29,1.4-10.76c-10.86-2.52-21.07-7.65-30.8-15.47h31.08c-.18-3.71-.55-7.37-1.07-11h-9.88a98.87,98.87,0,0,1,4.12-22.91,115.57,115.57,0,0,0-6.16-13.92,107.76,107.76,0,0,0-8.73,36.84H257.94c-2.7-13.19,1.89-29.62,12.05-43a63.07,63.07,0,0,1,6.11-7Q273,64,269.55,59.9C256.1,71.83,247.38,89.06,247.06,107.51Zm.1,62.32c-4.63-.88-8.28-5.48-8.28-10.62s3.59-9.66,8.28-10.52Z"></path><path class="cls-4" d="M223,243.23A116,116,0,1,1,269.55,59.9a68.36,68.36,0,0,1,6.81-5.31A124.54,124.54,0,1,0,207.15,256.9c.89-1.12,1.83-2.22,2.81-3.28A56.6,56.6,0,0,1,223,243.23Z"></path><path class="cls-4" d="M269,210.84a116.55,116.55,0,0,1-34.66,27.29q2.44-.8,4.93-1.37c6.42-1.46,13-2.94,19.79-4.44a125.74,125.74,0,0,0,16.84-16.27c-.4-.32-.83-.63-1.3-1A56.93,56.93,0,0,1,269,210.84Z"></path><path class="cls-4" d="M276.1,68.34a53.9,53.9,0,0,1,6.63-5.58q-3-4.23-6.37-8.17a68.36,68.36,0,0,0-6.81,5.31Q273,64,276.1,68.34Z"></path><path class="cls-4" d="M269,210.84a56.93,56.93,0,0,0,5.6,4.26c.47.32.9.63,1.3,1q3.42-4,6.49-8.23a53.87,53.87,0,0,1-6.78-5.35C273.48,205.36,271.28,208.16,269,210.84Z"></path><path class="cls-4" d="M295.43,155.53a82.79,82.79,0,0,0,8.53,1.35c.63-3.51,1.09-7.08,1.42-10.69a69.62,69.62,0,0,1-8.55-1.42Q296.38,150.23,295.43,155.53Z"></path><path class="cls-4" d="M297.11,129.3h8.64c-.17-3.7-.5-7.37-1-11H296C296.56,121.93,296.93,125.59,297.11,129.3Z"></path><path class="cls-4" d="M290.28,95.4a88.64,88.64,0,0,1,4.52-11.74,125.24,125.24,0,0,0-6-11.56q-2.58,4.59-4.67,9.38A115.57,115.57,0,0,1,290.28,95.4Z"></path><path class="cls-4" d="M239.22,236.76q-2.49.57-4.93,1.37a115.65,115.65,0,0,1-11.34,5.1,56.6,56.6,0,0,0-13,10.39c-1,1.06-1.92,2.16-2.81,3.28A124.21,124.21,0,0,0,259,232.32C252.2,233.82,245.64,235.3,239.22,236.76Z"></path></g></g></svg>