<svg xmlns="http://www.w3.org/2000/svg" xmlns:xlink="http://www.w3.org/1999/xlink" id="Capa_1" x="0px" y="0px" viewBox="0 0 512 512" style="enable-background:new 0 0 512 512;" xml:space="preserve">
<style type="text/css">
	.st0{fill:#FFFFFF;}
</style>
<g>
	<path class="st0" d="M323,281.6c27.5-21.2,43.2-53.2,43.2-87.8c0-32.8-14.4-63.7-39.6-84.9c-2.1-1.8-5.3-1.5-7.1,0.6   c-1.8,2.1-1.5,5.3,0.6,7.1c22.9,19.2,36,47.3,36,77.1c0,31.5-14.3,60.6-39.3,79.8c-6.8,5.3-10.8,13.2-10.8,21.7v10.3h-23.3v-11.8   c0-5.7-4.7-10.4-10.4-10.4h-0.7v-12.2h6.1c8.9,0,16.2-7.3,16.2-16.2s-7.3-16.2-16.2-16.2c-8.9,0-16.2,7.3-16.2,16.2v6.1h-12.2V255   c0-8.9-7.3-16.2-16.2-16.2S217,246.1,217,255c0,8.9,7.3,16.2,16.2,16.2h6.1v12.2h-0.7c-5.7,0-10.4,4.7-10.4,10.4v11.8h-23.3v-10.3   c0-8.5-3.9-16.5-10.8-21.7c-25.3-19.5-39.6-49-39.3-80.9c0.3-27.4,11.3-52.9,31-71.7c19.7-18.9,45.7-28.7,73.2-27.8   c15.9,0.5,30.9,4.7,44.8,12.3c2.4,1.3,5.5,0.4,6.8-2c1.3-2.4,0.4-5.5-2-6.8c-15.3-8.4-31.8-12.9-49.3-13.5   c-30.2-1-58.8,9.8-80.5,30.6c-21.7,20.7-33.8,48.7-34.1,78.9c-0.2,17.7,3.7,34.7,11.5,50.4c7.4,15,18.4,28.3,31.7,38.6   c4.4,3.4,6.9,8.4,6.9,13.8v11.1c-6.5,2.1-11.1,8.2-11.1,15.4c0,7.2,4.7,13.2,11.1,15.4v46.4c0,11.7,9.5,21.2,21.2,21.2h1.4   c2.1,12.6,13,22.3,26.2,22.3h23.8c13.2,0,24.1-9.7,26.2-22.3h1.4c11.7,0,21.2-9.5,21.2-21.2v-46.4c6.5-2.1,11.1-8.2,11.1-15.4   c0-7.2-4.7-13.2-11.1-15.4v-11.1C316.1,289.9,318.6,284.9,323,281.6L323,281.6z M271.6,255c0-3.4,2.7-6.1,6.1-6.1   c3.4,0,6.1,2.7,6.1,6.1c0,3.4-2.7,6.1-6.1,6.1h-6.1V255z M233.2,261.1c-3.4,0-6.1-2.7-6.1-6.1c0-3.4,2.7-6.1,6.1-6.1   c3.4,0,6.1,2.7,6.1,6.1v6.1H233.2z M249.3,271.2h12.2v12.2h-12.2V271.2z M238.2,293.8c0-0.2,0.2-0.3,0.3-0.3h33.8   c0.2,0,0.3,0.2,0.3,0.3v11.8h-34.4V293.8z M306,350.1h-68.9c-2.8,0-5,2.3-5,5s2.3,5,5,5H306v12.2H204.8v-12.2H217c2.8,0,5-2.3,5-5   s-2.3-5-5-5h-12.2v-12.2H306V350.1z M267.3,416.9h-23.8c-7.6,0-14-5.2-15.9-12.2h55.6C281.3,411.7,274.9,416.9,267.3,416.9   L267.3,416.9z M295,394.6h-6.1H222h-6.1c-6.1,0-11.1-5-11.1-11.1v-1.1H306v1.1C306,389.7,301.1,394.6,295,394.6z M311.1,327.9   H199.8c-3.4,0-6.1-2.7-6.1-6.1c0-3.4,2.7-6.1,6.1-6.1h33.4h44.5h33.4c3.4,0,6.1,2.7,6.1,6.1C317.2,325.1,314.4,327.9,311.1,327.9z"></path>
	<path class="st0" d="M126.9,193.8c0-2.8-2.3-5-5-5H99.6c-2.8,0-5,2.3-5,5c0,2.8,2.3,5,5,5h22.3   C124.6,198.8,126.9,196.5,126.9,193.8z"></path>
	<path class="st0" d="M137.2,256.2L118,267.3c-2.4,1.4-3.2,4.5-1.8,6.9c0.9,1.6,2.6,2.5,4.4,2.5c0.9,0,1.7-0.2,2.5-0.7l19.3-11.1   c2.4-1.4,3.2-4.5,1.8-6.9C142.7,255.6,139.6,254.8,137.2,256.2z"></path>
	<path class="st0" d="M392.9,267.3l-19.3-11.1c-2.4-1.4-5.5-0.6-6.9,1.8c-1.4,2.4-0.6,5.5,1.8,6.9l19.3,11.1   c0.8,0.5,1.7,0.7,2.5,0.7c1.7,0,3.4-0.9,4.4-2.5C396.1,271.8,395.3,268.7,392.9,267.3L392.9,267.3z"></path>
	<path class="st0" d="M411.3,188.7H389c-2.8,0-5,2.3-5,5c0,2.8,2.3,5,5,5h22.3c2.8,0,5-2.3,5-5C416.3,191,414,188.7,411.3,188.7z"></path>
	<path class="st0" d="M371.1,132c0.9,0,1.7-0.2,2.5-0.7l19.3-11.1c2.4-1.4,3.2-4.5,1.8-6.9c-1.4-2.4-4.5-3.2-6.9-1.8l-19.3,11.1   c-2.4,1.4-3.2,4.5-1.8,6.9C367.7,131.1,369.4,132,371.1,132L371.1,132z"></path>
	<path class="st0" d="M118,120.2l19.3,11.1c0.8,0.5,1.7,0.7,2.5,0.7c1.7,0,3.4-0.9,4.4-2.5c1.4-2.4,0.6-5.5-1.8-6.9L123,111.5   c-2.4-1.4-5.5-0.6-6.9,1.8C114.7,115.7,115.6,118.8,118,120.2z"></path>
	<path class="st0" d="M255.4,149.8c-8.9,0-16.2,7.3-16.2,16.2c0,8.9,7.3,16.2,16.2,16.2c8.9,0,16.2-7.3,16.2-16.2   C271.6,157,264.3,149.8,255.4,149.8z M255.4,172c-3.4,0-6.1-2.7-6.1-6.1s2.7-6.1,6.1-6.1s6.1,2.7,6.1,6.1   C261.5,169.3,258.8,172,255.4,172z"></path>
	<path class="st0" d="M301.3,147.2c-0.1-0.1-0.1-0.3-0.2-0.4l3.6-6c2.5-4.2,1.9-9.5-1.6-13l-9.6-9.6c-3.4-3.4-8.8-4.1-13-1.6l-6,3.6   c-0.1-0.1-0.3-0.1-0.4-0.2l-1.7-6.8c-1.2-4.7-5.4-8-10.3-8h-13.6c-4.9,0-9.1,3.3-10.3,8l-1.7,6.8c-0.1,0.1-0.3,0.1-0.4,0.2l-6-3.6   c-4.2-2.5-9.5-1.9-13,1.6l-9.6,9.6c-3.4,3.4-4.1,8.8-1.6,13l3.6,6c-0.1,0.1-0.1,0.3-0.2,0.4l-6.8,1.7c-4.7,1.2-8,5.4-8,10.3v13.6   c0,4.9,3.3,9.1,8,10.3l6.8,1.7c0.1,0.1,0.1,0.3,0.2,0.4l-3.6,6c-2.5,4.2-1.9,9.5,1.6,13l9.6,9.6c3.4,3.4,8.8,4.1,13,1.6l6-3.6   c0.1,0.1,0.3,0.1,0.4,0.2l1.7,6.8c1.2,4.7,5.4,8,10.3,8h13.6c4.9,0,9.1-3.3,10.3-8l1.7-6.8c0.1-0.1,0.3-0.1,0.4-0.2l6,3.6   c4.2,2.5,9.5,1.9,13-1.6l9.6-9.6c3.4-3.4,4.1-8.8,1.6-13l-3.6-6c0.1-0.1,0.1-0.3,0.2-0.4l6.8-1.7c4.7-1.2,8-5.4,8-10.3v-13.6   c0-4.9-3.3-9.1-8-10.3L301.3,147.2z M306,172.7c0,0.2-0.2,0.5-0.4,0.5l-9.4,2.3c-1.7,0.4-3,1.6-3.5,3.2c-0.5,1.5-1.1,3-1.8,4.4   c-0.7,1.5-0.7,3.3,0.2,4.8l5,8.3c0.1,0.2,0.1,0.5-0.1,0.6l-9.6,9.6c-0.2,0.2-0.4,0.2-0.6,0.1l-8.3-5c-1.5-0.9-3.3-1-4.8-0.2   c-1.4,0.7-2.9,1.3-4.4,1.8c-1.6,0.6-2.8,1.9-3.2,3.5l-2.3,9.4c-0.1,0.2-0.3,0.4-0.5,0.4h-13.6c-0.2,0-0.5-0.2-0.5-0.4l-2.3-9.4   c-0.4-1.7-1.6-3-3.2-3.5c-1.5-0.5-3-1.1-4.4-1.8c-0.7-0.3-1.5-0.5-2.2-0.5c-0.9,0-1.8,0.2-2.6,0.7l-8.3,5c-0.2,0.1-0.5,0.1-0.6-0.1   l-9.6-9.6c-0.2-0.2-0.2-0.4-0.1-0.6l5-8.3c0.9-1.5,1-3.3,0.2-4.8c-0.7-1.4-1.3-2.9-1.8-4.4c-0.6-1.6-1.9-2.8-3.5-3.2l-9.3-2.3   c-0.2-0.1-0.4-0.3-0.4-0.5v-13.6c0-0.2,0.2-0.5,0.4-0.5l9.4-2.3c1.7-0.4,3-1.6,3.5-3.2c0.5-1.5,1.1-3,1.8-4.4   c0.7-1.5,0.7-3.3-0.2-4.8l-5-8.3c-0.1-0.2-0.1-0.5,0.1-0.6l9.6-9.6c0.2-0.2,0.4-0.2,0.6-0.1l8.3,5c1.5,0.9,3.3,1,4.8,0.2   c1.4-0.7,2.9-1.3,4.4-1.8c1.6-0.6,2.8-1.9,3.2-3.5l2.3-9.4c0.1-0.2,0.3-0.4,0.5-0.4h13.6c0.2,0,0.5,0.2,0.5,0.4l2.3,9.4   c0.4,1.7,1.6,3,3.2,3.5c1.5,0.5,3,1.1,4.4,1.8c1.5,0.7,3.3,0.7,4.8-0.2l8.3-5c0.2-0.1,0.5-0.1,0.6,0.1l9.6,9.6   c0.2,0.2,0.2,0.4,0.1,0.6l-5,8.3c-0.9,1.5-1,3.3-0.2,4.8c0.7,1.4,1.3,2.9,1.8,4.4c0.6,1.6,1.9,2.8,3.5,3.2l9.4,2.3   c0.2,0.1,0.4,0.3,0.4,0.5L306,172.7L306,172.7z"></path>
</g>
</svg>