<svg xmlns="http://www.w3.org/2000/svg" xmlns:xlink="http://www.w3.org/1999/xlink" id="Capa_1" x="0px" y="0px" viewBox="0 0 512 512" style="enable-background:new 0 0 512 512;" xml:space="preserve">
<style type="text/css">
	.st0{fill:#FFFFFF;}
</style>
<g>
	<path class="st0" d="M338.5,223.7c-0.7-1.5-1-3.2-0.9-4.9l4.8-58.6c0.5-6.6-1.9-13-6.7-17.5c-4.8-4.5-11.3-6.6-17.9-5.7   c-5,0.7-9.9,2.3-14.3,4.8c-0.3-0.5-0.7-1-1.1-1.4c-9.1-10.9-25.4-12.3-36.3-3.2l-39.4,33v-7.4c0-0.6,0.2-1.1,0.5-1.5l8.2-12   c1.6-2.3,1-5.4-1.3-7c-2.3-1.6-5.4-1-7,1.3l-8.2,12c-1.5,2.1-2.2,4.6-2.2,7.2v15.8l-31.4,26.2v-47.4c0-5.4,1.6-10.7,4.7-15.1   l28.8-42.1c2.4-3.5,5.9-5.8,10-6.6c4.1-0.8,8.3,0.1,11.7,2.5c3.5,2.4,5.8,5.9,6.6,10c0.8,4.1-0.1,8.3-2.5,11.7l-5.3,7.7   c-1.6,2.3-1,5.4,1.3,7c2.3,1.6,5.4,1,7-1.3l5.3-7.7c3.9-5.7,5.3-12.5,4-19.3s-5.1-12.6-10.8-16.5c-5.7-3.9-12.5-5.3-19.3-4   c-6.8,1.3-12.6,5.1-16.5,10.8l-28.8,42.1c-4.2,6.2-6.4,13.4-6.4,20.8v55.8l-15.1,12.6c-10.8,9.1-16.7,22.9-15.6,37l3.2,40.7   c0.2,2.6,2.4,4.6,5,4.6c0.1,0,0.3,0,0.4,0c2.8-0.2,4.8-2.6,4.6-5.4l-3.2-40.7c-0.9-10.9,3.6-21.5,12-28.5l106-88.7   c6.6-5.6,16.5-4.7,22.1,1.9c5.6,6.6,4.7,16.5-1.9,22.1l-55.2,46.2c-3.4,0.8-6.7,2.5-9.6,5l-27,23.5c-2.1,1.8-2.3,5-0.5,7.1   c1.8,2.1,5,2.3,7.1,0.5l27-23.5c4.7-4.1,11.5-4.1,16.3-0.1l40.8,34.7c3.2,2.7,5.1,6.5,5.5,10.7c0.3,4.2-1,8.2-3.7,11.4   c-2,2.3-4.6,4-7.5,4.9L257.5,265c-8.6-7.3-20.9-7.2-29.4,0.2l-27,23.5c-2.1,1.8-2.3,5-0.5,7.1c1.8,2.1,5,2.3,7.1,0.5l27-23.5   c4.7-4.1,11.5-4.1,16.3-0.1l40.8,34.7c3.2,2.7,5.1,6.5,5.5,10.7c0.3,4.2-1,8.2-3.7,11.4c-2.7,3.2-6.5,5.1-10.7,5.5   c-4.2,0.3-8.2-1-11.4-3.7l-25.2-21.5c-2-1.7-5-1.6-6.8,0.3l-7.5,7.5c-2,2-2,5.2,0,7.1c2,2,5.2,2,7.1,0l4.2-4.2l21.7,18.5   c4.7,4,10.5,6.1,16.6,6.1c0.7,0,1.4,0,2.1-0.1c6.9-0.6,13.1-3.7,17.5-9c4.5-5.2,6.6-11.9,6.1-18.8c-0.6-6.9-3.7-13.1-9-17.5   l-3.8-3.2c2.5-1.5,4.8-3.3,6.7-5.6c9.2-10.8,7.9-27.1-2.9-36.3l-18.1-15.4l10.9-55.8l8.2-6.8c5.3-4.4,8.5-10.6,9.1-17.5   c0.2-2.8,0-5.5-0.6-8.2c3.5-2.1,7.4-3.5,11.5-4c3.5-0.5,7,0.6,9.6,3.1c2.6,2.4,3.9,5.9,3.6,9.4l-4.8,58.6   c-0.3,3.5,0.4,6.9,1.9,10.1l9,18.5c11.3,23.3,11.7,50.3,1,74l-5.8,12.8c-1.1,2.5,0,5.5,2.5,6.7c0.7,0.3,1.4,0.4,2.1,0.4   c1.9,0,3.8-1.1,4.6-3l5.8-12.8c11.8-26.4,11.4-56.4-1.2-82.5L338.5,223.7z M271.4,231.8l-13.9-11.8c-1.8-1.5-3.7-2.7-5.7-3.5   l27-22.6L271.4,231.8z"></path>
	<path class="st0" d="M331.5,350.5c-2.5-1.1-5.5,0-6.7,2.5L312,381.7c-0.3,0.6-0.4,1.4-0.4,2.1V422c0,2.8,2.3,5,5,5c2.8,0,5-2.3,5-5   v-37.1l12.4-27.7C335.2,354.6,334,351.6,331.5,350.5z"></path>
	<path class="st0" d="M302.3,114.3c2.8,0,5-2.3,5-5V88c0-2.8-2.3-5-5-5c-2.8,0-5,2.3-5,5v21.3C297.3,112,299.5,114.3,302.3,114.3z"></path>
	<path class="st0" d="M323.8,119.3c0.8,0.4,1.6,0.6,2.4,0.6c1.8,0,3.5-0.9,4.4-2.6L341,98.8c1.4-2.4,0.5-5.5-1.9-6.8   c-2.4-1.4-5.5-0.5-6.8,1.9l-10.3,18.6C320.5,114.9,321.3,118,323.8,119.3z"></path>
	<path class="st0" d="M366.7,117.6c-1.5-2.4-4.6-3.1-6.9-1.6l-18.1,11.2c-2.4,1.5-3.1,4.6-1.6,6.9c1,1.5,2.6,2.4,4.3,2.4   c0.9,0,1.8-0.2,2.6-0.8l18.1-11.2C367.5,123.1,368.2,120,366.7,117.6L366.7,117.6z"></path>
	<path class="st0" d="M174.2,358.5c-7.9-9.9-12.9-21.8-14.6-34.4c-0.4-2.8-2.9-4.7-5.6-4.3c-2.8,0.4-4.7,2.9-4.3,5.6   c1.9,14.4,7.6,28,16.7,39.4l20.8,26.1v30.8c0,2.8,2.3,5,5,5s5-2.3,5-5v-32.6c0-1.1-0.4-2.2-1.1-3.1L174.2,358.5z"></path>
</g>
</svg>