<svg xmlns="http://www.w3.org/2000/svg" viewBox="0 0 515.56 437.21"><defs><style>.cls-1{fill:#7dcb97;}.cls-2{fill:#3e2563;stroke:#3e2563;stroke-miterlimit:10;stroke-width:2px;}</style></defs><g id="Calque_2" data-name="Calque 2"><g id="Calque_2-2" data-name="Calque 2"><path class="cls-1" d="M36,81C16,84.13,0,103.14,0,123.47V437.21l515.56-81.66V5Z"></path></g><g id="Calque_3" data-name="Calque 3"><path class="cls-2" d="M402.94,307.68c5.67,0,10.89,0,16.11,0,4.2,0,5.48,1.33,5.49,5.55q0,11.07,0,22.15c0,4.05-1.31,5.38-5.29,5.38H96.19c-3.83,0-5.15-1.34-5.17-5.18q0-11.22,0-22.46c0-4.15,1.31-5.42,5.58-5.44,5.21,0,10.42,0,16,0v-3.54q0-103.38,0-206.76a5.17,5.17,0,0,0-2.44-4.73A25,25,0,0,1,99.58,71.84c0-7-.06-14,0-20.92a16.39,16.39,0,0,1,.87-4.79C105,32.42,109.62,18.75,114.09,5c.94-2.89,2.58-4,5.62-4Q257.86,1.08,396,1c2.89,0,4.52,1.05,5.43,3.84,4.52,13.81,9.2,27.57,13.73,41.38a18.4,18.4,0,0,1,.82,5.42c.1,6.56,0,13.13,0,19.69,0,9.19-3.81,16.44-11.22,21.75a4,4,0,0,0-1.88,3.77q0,104,0,208Zm-282.13-.21H394.75V97.65c-11.24,1.52-20.19-2.33-27-11.47C362.18,93.86,354.92,98,345.66,98s-16.37-4.34-21.88-11.78C318.14,93.86,310.89,98,301.62,98s-16.38-4.36-21.82-11.73c-11.15,15.4-32.5,15.81-43.93.23-11.86,15.91-33.28,14.83-44.08,0-11.52,15.43-32.69,15.25-43.53.65-4.13,2.94-7.91,6.64-12.44,8.56s-9.81,2-15,3ZM99.17,332.53H416.39V315.92H99.17ZM109.28,45.31h35.14L153,9.06c-10.33,0-20.16,0-30-.05-1.86,0-2.13,1.05-2.56,2.36q-5.07,15.29-10.2,30.57C109.92,43,109.65,44.05,109.28,45.31Zm261.87-.11h35.24c-4.08-12.23-8-24.14-12-36h-31.8C365.47,21.31,368.3,33.24,371.15,45.2Zm-139.4.08c.57-12.15,1.12-24.06,1.68-36.09H201.82c-1.71,12-3.41,23.94-5.13,36.09Zm41.9-36H241.94c-.55,12.08-1.1,24-1.65,36.07h35C274.76,33.21,274.21,21.28,273.65,9.23Zm10.2,36h35c-1.73-12.15-3.42-24.07-5.11-36H282.15C282.72,21.38,283.28,33.22,283.85,45.26Zm-95.76.07c1.74-12.19,3.44-24.08,5.16-36.15H161.71l-8.56,36.15Zm174.36,0c-2.91-12.29-5.74-24.2-8.55-36H322.33c1.75,12.14,3.46,24.05,5.19,36.05Zm9.68,8.33c0,6.3-.08,12.42,0,18.54C372.3,81.84,378.74,89,388,89.82c9.53.9,18.4-5.21,19.6-14.66.89-7,.17-14.24.17-21.51Zm-264.48,0c0,6.88-.28,13.44.07,20,.51,9.25,8.87,16.49,18.32,16.35a17.17,17.17,0,0,0,17.33-16.78c.23-6,.09-12.08.08-18.13a6.28,6.28,0,0,0-.34-1.41Zm132.84,0c0,7.64-.61,15.06.17,22.32.87,8.17,8.16,13.73,16.63,14,8.19.26,16.1-4.86,17.36-12.73,1.24-7.68.89-15.61,1.25-23.59Zm87.79,0c0,7.14-.56,14.13.13,21,.94,9.3,8.3,15.32,17.41,15.3s16.36-5.92,17.34-15c.75-7,.15-14,.15-21.25Zm-176.19,0c0,6.9-.38,13.47.08,20a17.17,17.17,0,0,0,18.12,16.32c9.66-.31,16.83-7.4,17.21-17.34.22-5.94.05-11.89,0-17.84a4.42,4.42,0,0,0-.35-1.13Zm132.09,0c0,6.78-.21,13.41.05,20a17,17,0,0,0,15.31,16.14c9,1,17.48-3.88,19-12.33,1.37-7.73,1-15.77,1.32-23.82Zm-88,0c0,6.75-.17,13.19,0,19.62a17,17,0,0,0,15.86,16.58c9.26.81,17.69-4.76,18.86-13.78,1-7.3.19-14.83.19-22.42Z"></path><path class="cls-2" d="M257.67,180c6.66-6.61,13-12.85,19.25-19.23a4,4,0,0,0,.43-3.21c-5.06-18.73,5.72-37.19,24.46-41.73a31.52,31.52,0,0,1,19.31,1.33c3.79,1.47,4.49,4.52,1.66,7.41-4.37,4.47-8.85,8.84-13.26,13.28-3.54,3.57-3.84,7.8-.81,10.88s7.43,2.92,11.11-.74c4.15-4.11,8.27-8.26,12.41-12.39,3.95-3.93,6.94-3.22,8.65,2.19,3.95,12.55,1.43,23.85-7.52,33.32s-20.08,12.27-32.64,9.19c-2.13-.52-3.45-.36-5,1.28-5.91,6.09-12,12-18.22,18.16,6.75,6.75,13.14,13.23,19.67,19.56.54.52,2.08.33,3,.07,21.86-6,43.29,10.61,42.4,33.16a41,41,0,0,1-2.28,10.76c-1.17,3.68-4.4,4.29-7.18,1.57-4.48-4.36-8.86-8.84-13.3-13.25-3.49-3.46-7.91-3.82-10.92-.93-3.21,3.09-2.95,7.44.69,11.1,4.26,4.3,8.57,8.55,12.82,12.85,3.37,3.4,2.69,6.55-1.89,8.06-12.56,4.16-24,1.95-33.73-7s-12.65-20.29-9.46-33.09c.51-2,.31-3.3-1.23-4.78-6.1-5.91-12.06-12-18.39-18.29L246.37,231a12,12,0,0,1-.88.87c-5.15,4.25-9.66,8.73-6.17,16.26,1.76,24.54-21,42.58-43.79,34.76-5.14-1.76-5.86-4.73-2.07-8.54,4.2-4.22,8.43-8.4,12.62-12.63,3.5-3.53,3.75-7.82.7-10.88s-7.46-2.77-10.91.66c-4.23,4.19-8.4,8.43-12.61,12.63-3.8,3.81-6.86,3.11-8.52-2.06-4-12.51-1.65-23.86,7.28-33.37s20.17-12.48,32.87-9.35c2.1.53,3.45.39,5-1.27,5.82-6.07,11.85-11.93,18-18.11-1.43-1.49-2.73-2.88-4.07-4.23-4.7-4.73-9.48-9.38-14.09-14.19a4.14,4.14,0,0,0-4.77-1.28A33.13,33.13,0,0,1,173,147.4a41.93,41.93,0,0,1,2.3-11.05c1.16-3.66,4.42-4.24,7.2-1.52,4.47,4.38,8.83,8.87,13.27,13.27,3.61,3.59,8.06,3.81,11.13.62s2.63-7.31-.93-10.9c-4.19-4.22-8.42-8.4-12.61-12.62-3.65-3.68-3-6.76,2-8.38,12.49-4,23.84-1.72,33.4,7.17s12.61,20.12,9.48,32.81c-.57,2.32-.3,3.66,1.39,5.3C245.7,167.92,251.57,173.93,257.67,180Zm-76.42-35.16c-.17,1.41-.28,2-.3,2.58-.69,17.95,17.49,30.89,34.36,24.3,3.32-1.3,5.44-.68,7.85,1.75q30.45,30.69,61.1,61.16c2.37,2.36,2.85,4.46,1.6,7.62a25,25,0,0,0,17.26,33.53c2.86.72,5.9.7,8.86,1l.47-1.12c-3.22-3.11-6.57-6.11-9.64-9.37a15.22,15.22,0,0,1,21.54-21.49c2.77,2.59,5.37,5.36,8.08,8a18.7,18.7,0,0,0,1.9,1.44c2.42-18.6-16.52-33.23-33.89-26.45-3.43,1.34-5.6.79-8.13-1.76Q262,195.54,231.4,165.2c-2.45-2.43-3-4.57-1.73-7.87a25.08,25.08,0,0,0-17.32-33.52c-2.83-.7-5.84-.67-8.77-1l-.44,1.17c2.88,2.75,5.82,5.43,8.63,8.25,6.64,6.67,6.91,16.05.72,22.23s-15.67,5.95-22.28-.57C187.38,151.13,184.6,148.27,181.25,144.88Zm0,109.86c3.43-3.44,6.38-6.53,9.47-9.48,4.44-4.25,9.77-5.62,15.61-3.75a15.09,15.09,0,0,1,6.33,24.9c-3,3.26-6.4,6.22-10.23,9.92,1.74.2,2.41.33,3.08.35,17.92.63,30.73-17.66,24-34.51-1.2-3-.82-5.14,1.53-7.38,5.48-5.24,10.73-10.74,16.16-16A51,51,0,0,1,252,215c-3.29-3.62-5.82-6.38-8.46-9.29-6.85,6.85-13.68,13.49-20.28,20.37-2.48,2.59-4.7,3.09-8.12,1.77C197.67,221.11,178.79,235.68,181.29,254.74ZM334.1,145.36c-.84.76-1.58,1.39-2.27,2.08-2.63,2.58-5.13,5.32-7.9,7.75a15.26,15.26,0,0,1-25.07-9.08c-.89-5.27.82-9.69,4.49-13.42,3-3,6-6,9.41-9.42-1.37-.15-2-.26-2.54-.28-18.08-.67-31,17.62-24.31,34.58,1.2,3,.79,5.12-1.54,7.36-5.75,5.55-11.29,11.32-17,16.91a28.47,28.47,0,0,1-3.83,2.8l8.49,9.2c6.91-6.87,13.88-13.65,20.66-20.62,2.27-2.32,4.35-2.72,7.37-1.53,8.31,3.27,16.31,2.28,23.69-2.73C331.48,163.72,336,153.42,334.1,145.36Z"></path></g></g></svg>